<svg version="1" xmlns="http://www.w3.org/2000/svg" width="554.667" height="554.667" viewBox="0 0 416.000000 416.000000"><path d="M150.4 10.7c-2.3 3.9 0 11.9 11.7 39.5 20.6 48.8 24.7 74.1 15.2 93.2-3.8 7.6-10.9 13.7-23.1 19.6-11.5 5.7-16.9 9.2-27.3 17.6-9.2 7.5-20.6 20.6-25.7 29.4-1.4 2.5-3.1 5.2-3.8 6-1.7 2.1-8.8 19.4-10.7 26.1C79.4 268 80 294 88.6 320c2.6 8.1 12.2 26.3 17.6 33.5 20.3 27.2 51.2 45.7 83.8 50.3 6.1.9 27.2.9 34 0 40.6-5.2 76.9-31 95.6-68.1 9.1-17.9 13.6-36.4 13.7-56.2.1-12.5-1-27-2.7-35.8-7-35.5-19.7-66.8-41.4-102.2-5.3-8.6-18-27.5-19.1-28.5-.4-.3-2.6-3.2-5-6.5-2.5-3.3-4.8-6.2-5.1-6.5-.4-.3-2.3-2.7-4.3-5.3-2-2.6-4.2-5.4-4.9-6.1-.7-.7-3.5-4-6.3-7.2-5.6-6.6-32.6-33.9-39.6-39.9-18-15.7-34-26.9-43.5-30.4-6.7-2.6-9.6-2.6-11-.4zm129 231.2c7.2 4.5 10 15.5 6 23.3-8.5 16.6-33.9 10.3-33.7-8.3.1-7.4 5-14.2 11.8-16.8 4.1-1.5 12-.6 15.9 1.8z"/></svg>