<svg width="136" height="208" viewBox="0 0 136 208" fill="none" xmlns="http://www.w3.org/2000/svg">
<path fill-rule="evenodd" clip-rule="evenodd" d="M67.7881 202.5C102.582 202.5 130.788 174.07 130.788 139C130.788 71 54.5762 4.5 41.0762 4.5C36.2532 4.5 39.6625 12.477 44.3277 23.3924C52.3579 42.1814 64.1093 69.6771 44.0011 80.1821C20.9988 89.6426 4.78809 112.413 4.78809 139C4.78809 174.07 32.9941 202.5 67.7881 202.5ZM98.7881 137.5C103.759 137.5 107.788 133.471 107.788 128.5C107.788 123.529 103.759 119.5 98.7881 119.5C93.8175 119.5 89.7881 123.529 89.7881 128.5C89.7881 133.471 93.8175 137.5 98.7881 137.5Z" fill="white"/>
</svg>
