<svg width="143" height="215" viewBox="0 0 143 215" fill="none" xmlns="http://www.w3.org/2000/svg">
<g filter="url(#filter0_d)">
<path fill-rule="evenodd" clip-rule="evenodd" d="M69.7881 202.5C104.582 202.5 132.788 174.07 132.788 139C132.788 71 56.5761 4.5 43.0761 4.5C38.2532 4.5 41.6625 12.477 46.3276 23.3924C54.3579 42.1814 66.1092 69.6771 46.001 80.1821C22.9987 89.6426 6.78806 112.413 6.78806 139C6.78806 174.07 34.9941 202.5 69.7881 202.5ZM100.788 137.5C105.759 137.5 109.788 133.471 109.788 128.5C109.788 123.529 105.759 119.5 100.788 119.5C95.8175 119.5 91.7881 123.529 91.7881 128.5C91.7881 133.471 95.8175 137.5 100.788 137.5Z" fill="#FF8A80"/>
</g>
<defs>
<filter id="filter0_d" x="0.788055" y="0.5" width="142" height="214" filterUnits="userSpaceOnUse" color-interpolation-filters="sRGB">
<feFlood flood-opacity="0" result="BackgroundImageFix"/>
<feColorMatrix in="SourceAlpha" type="matrix" values="0 0 0 0 0 0 0 0 0 0 0 0 0 0 0 0 0 0 127 0"/>
<feOffset dx="2" dy="4"/>
<feGaussianBlur stdDeviation="4"/>
<feColorMatrix type="matrix" values="0 0 0 0 0 0 0 0 0 0 0 0 0 0 0 0 0 0 0.25 0"/>
<feBlend mode="normal" in2="BackgroundImageFix" result="effect1_dropShadow"/>
<feBlend mode="normal" in="SourceGraphic" in2="effect1_dropShadow" result="shape"/>
</filter>
</defs>
</svg>
