<svg width="137" height="208" viewBox="0 0 137 208" fill="none" xmlns="http://www.w3.org/2000/svg">
<path fill-rule="evenodd" clip-rule="evenodd" d="M68 202.5C102.794 202.5 131 174.07 131 139C131 71 54.7881 4.5 41.2881 4.5C36.4651 4.5 39.8744 12.477 44.5396 23.3924C52.5698 42.1814 64.3212 69.6771 44.213 80.1821C21.2107 89.6426 5 112.413 5 139C5 174.07 33.2061 202.5 68 202.5ZM99 137.5C103.971 137.5 108 133.471 108 128.5C108 123.529 103.971 119.5 99 119.5C94.0294 119.5 90 123.529 90 128.5C90 133.471 94.0294 137.5 99 137.5Z" fill="#FA8072"/>
</svg>
