<svg width="127" height="199" viewBox="0 0 127 199" fill="none" xmlns="http://www.w3.org/2000/svg">
<path fill-rule="evenodd" clip-rule="evenodd" d="M63.7881 198.5C98.582 198.5 126.788 170.07 126.788 135C126.788 67 50.5761 0.5 37.0761 0.5C32.2532 0.5 35.6625 8.47697 40.3276 19.3924C48.3579 38.1814 60.1092 65.6771 40.001 76.1821C16.9987 85.6426 0.788055 108.413 0.788055 135C0.788055 170.07 28.9941 198.5 63.7881 198.5ZM94.7881 133.5C99.7586 133.5 103.788 129.471 103.788 124.5C103.788 119.529 99.7586 115.5 94.7881 115.5C89.8175 115.5 85.7881 119.529 85.7881 124.5C85.7881 129.471 89.8175 133.5 94.7881 133.5Z" fill="#FFAB91"/>
</svg>
